<svg width="1824" height="296" viewBox="0 0 1824 296" fill="none" xmlns="http://www.w3.org/2000/svg">
<g filter="url(#filter0_d_347_16)">
<path d="M213.834 56.4461L128.061 106.487L185.121 139.358L213.834 122.499L213.834 56.4461Z" fill="black"/>
<path d="M213.834 56.4461L128.061 106.487L185.121 139.358L213.834 122.499L213.834 56.4461Z" stroke="black" stroke-width="10.0151"/>
</g>
<g filter="url(#filter1_d_347_16)">
<path d="M127.949 183.611L214.144 233.827L214.144 167.775L185.008 150.739L127.949 183.611Z" fill="black"/>
<path d="M127.949 183.611L214.144 233.827L214.144 167.775L185.008 150.739L127.949 183.611Z" stroke="black" stroke-width="10.0151"/>
</g>
<g filter="url(#filter2_d_347_16)">
<path d="M112.74 9V103.582L55.9902 136.144V42.1814L112.74 9Z" fill="black"/>
<path d="M112.74 9V103.582L55.9902 136.144V42.1814L112.74 9Z" stroke="black" stroke-width="10.0151"/>
</g>
<g filter="url(#filter3_d_347_16)">
<path d="M56.0913 153.659L56.0912 276.621L114 243.13L114 186.53L56.0913 153.659Z" fill="black"/>
<path d="M56.0913 153.659L56.0912 276.621L114 243.13L114 186.53L56.0913 153.659Z" stroke="black" stroke-width="10.0151"/>
</g>
<path d="M455.36 226H414.08L369.2 153.76L353.84 164.8V226H317.6V54.64H353.84V133.12C356.24 129.76 358.64 126.4 361.04 123.04C363.44 119.68 365.84 116.32 368.24 112.96L414.56 54.64H454.88L395.12 130.48L455.36 226ZM627.808 140.08C627.808 153.36 626.128 165.44 622.768 176.32C619.568 187.04 614.608 196.32 607.888 204.16C601.328 212 592.848 218 582.448 222.16C572.208 226.32 560.128 228.4 546.208 228.4C532.288 228.4 520.128 226.32 509.728 222.16C499.488 217.84 491.008 211.84 484.288 204.16C477.728 196.32 472.768 186.96 469.408 176.08C466.208 165.2 464.608 153.12 464.608 139.84C464.608 122.08 467.488 106.64 473.248 93.52C479.168 80.4 488.128 70.24 500.128 63.04C512.288 55.68 527.728 52 546.448 52C565.008 52 580.288 55.68 592.288 63.04C604.288 70.24 613.168 80.48 618.928 93.76C624.848 106.88 627.808 122.32 627.808 140.08ZM502.768 140.08C502.768 152.08 504.288 162.4 507.328 171.04C510.368 179.68 515.088 186.32 521.488 190.96C527.888 195.6 536.128 197.92 546.208 197.92C556.608 197.92 564.928 195.6 571.168 190.96C577.568 186.32 582.208 179.68 585.088 171.04C588.128 162.4 589.648 152.08 589.648 140.08C589.648 122 586.288 107.84 579.568 97.6C572.848 87.36 561.808 82.24 546.448 82.24C536.208 82.24 527.888 84.56 521.488 89.2C515.088 93.84 510.368 100.48 507.328 109.12C504.288 117.76 502.768 128.08 502.768 140.08ZM815.223 226H769.143L694.503 96.4H693.543C693.703 100.4 693.863 104.48 694.023 108.64C694.183 112.64 694.343 116.72 694.503 120.88C694.823 124.88 695.063 128.96 695.223 133.12C695.383 137.12 695.543 141.2 695.703 145.36V226H663.303V54.64H709.143L783.543 183.04H784.263C784.103 179.04 783.943 175.12 783.783 171.28C783.623 167.28 783.463 163.36 783.303 159.52C783.303 155.52 783.223 151.6 783.063 147.76C782.903 143.76 782.743 139.76 782.583 135.76V54.64H815.223V226ZM1000.62 138.64C1000.62 157.84 996.938 173.92 989.578 186.88C982.218 199.84 971.498 209.6 957.418 216.16C943.498 222.72 926.698 226 907.018 226H858.538V54.64H912.298C930.218 54.64 945.738 57.84 958.858 64.24C972.138 70.64 982.378 80.08 989.578 92.56C996.938 104.88 1000.62 120.24 1000.62 138.64ZM962.938 139.6C962.938 126.96 961.098 116.56 957.418 108.4C953.738 100.24 948.218 94.24 940.858 90.4C933.658 86.4 924.778 84.4 914.218 84.4H894.778V196H910.378C928.138 196 941.338 191.28 949.978 181.84C958.618 172.4 962.938 158.32 962.938 139.6ZM1191.71 140.08C1191.71 153.36 1190.03 165.44 1186.67 176.32C1183.47 187.04 1178.51 196.32 1171.79 204.16C1165.23 212 1156.75 218 1146.35 222.16C1136.11 226.32 1124.03 228.4 1110.11 228.4C1096.19 228.4 1084.03 226.32 1073.63 222.16C1063.39 217.84 1054.91 211.84 1048.19 204.16C1041.63 196.32 1036.67 186.96 1033.31 176.08C1030.11 165.2 1028.51 153.12 1028.51 139.84C1028.51 122.08 1031.39 106.64 1037.15 93.52C1043.07 80.4 1052.03 70.24 1064.03 63.04C1076.19 55.68 1091.63 52 1110.35 52C1128.91 52 1144.19 55.68 1156.19 63.04C1168.19 70.24 1177.07 80.48 1182.83 93.76C1188.75 106.88 1191.71 122.32 1191.71 140.08ZM1066.67 140.08C1066.67 152.08 1068.19 162.4 1071.23 171.04C1074.27 179.68 1078.99 186.32 1085.39 190.96C1091.79 195.6 1100.03 197.92 1110.11 197.92C1120.51 197.92 1128.83 195.6 1135.07 190.96C1141.47 186.32 1146.11 179.68 1148.99 171.04C1152.03 162.4 1153.55 152.08 1153.55 140.08C1153.55 122 1150.19 107.84 1143.47 97.6C1136.75 87.36 1125.71 82.24 1110.35 82.24C1100.11 82.24 1091.79 84.56 1085.39 89.2C1078.99 93.84 1074.27 100.48 1071.23 109.12C1068.19 117.76 1066.67 128.08 1066.67 140.08ZM1432.97 138.64C1432.97 157.84 1429.37 173.92 1422.17 186.88C1415.13 199.84 1404.97 209.6 1391.69 216.16C1378.41 222.72 1362.33 226 1343.45 226H1295.69V54.64H1348.49C1365.77 54.64 1380.73 57.84 1393.37 64.24C1406.01 70.64 1415.77 80.08 1422.65 92.56C1429.53 104.88 1432.97 120.24 1432.97 138.64ZM1410.17 139.36C1410.17 124.16 1407.61 111.68 1402.49 101.92C1397.53 92.16 1390.17 84.96 1380.41 80.32C1370.81 75.52 1359.13 73.12 1345.37 73.12H1317.29V207.52H1340.57C1363.77 207.52 1381.13 201.84 1392.65 190.48C1404.33 178.96 1410.17 161.92 1410.17 139.36ZM1579.96 161.44C1579.96 172.16 1578.52 181.68 1575.64 190C1572.92 198.16 1568.92 205.12 1563.64 210.88C1558.52 216.64 1552.2 221.04 1544.68 224.08C1537.32 226.96 1529.08 228.4 1519.96 228.4C1511.48 228.4 1503.64 226.96 1496.44 224.08C1489.24 221.04 1483 216.64 1477.72 210.88C1472.44 205.12 1468.28 198.16 1465.24 190C1462.36 181.68 1460.92 172.16 1460.92 161.44C1460.92 147.2 1463.32 135.2 1468.12 125.44C1472.92 115.52 1479.8 108 1488.76 102.88C1497.72 97.6 1508.36 94.96 1520.68 94.96C1532.36 94.96 1542.6 97.6 1551.4 102.88C1560.36 108 1567.32 115.52 1572.28 125.44C1577.4 135.2 1579.96 147.2 1579.96 161.44ZM1482.76 161.44C1482.76 171.52 1484.04 180.32 1486.6 187.84C1489.32 195.2 1493.48 200.88 1499.08 204.88C1504.68 208.88 1511.8 210.88 1520.44 210.88C1529.08 210.88 1536.2 208.88 1541.8 204.88C1547.4 200.88 1551.48 195.2 1554.04 187.84C1556.76 180.32 1558.12 171.52 1558.12 161.44C1558.12 151.2 1556.76 142.48 1554.04 135.28C1551.32 128.08 1547.16 122.56 1541.56 118.72C1536.12 114.72 1529 112.72 1520.2 112.72C1507.08 112.72 1497.56 117.04 1491.64 125.68C1485.72 134.32 1482.76 146.24 1482.76 161.44ZM1665.03 228.4C1653.67 228.4 1643.51 226.08 1634.55 221.44C1625.75 216.8 1618.79 209.6 1613.67 199.84C1608.71 190.08 1606.23 177.6 1606.23 162.4C1606.23 146.56 1608.87 133.68 1614.15 123.76C1619.43 113.84 1626.55 106.56 1635.51 101.92C1644.63 97.28 1654.95 94.96 1666.47 94.96C1673.03 94.96 1679.35 95.68 1685.43 97.12C1691.51 98.4 1696.47 100 1700.31 101.92L1693.83 119.44C1689.99 118 1685.51 116.64 1680.39 115.36C1675.27 114.08 1670.47 113.44 1665.99 113.44C1657.35 113.44 1650.23 115.28 1644.63 118.96C1639.03 122.64 1634.87 128.08 1632.15 135.28C1629.43 142.48 1628.07 151.44 1628.07 162.16C1628.07 172.4 1629.43 181.12 1632.15 188.32C1634.87 195.52 1638.95 200.96 1644.39 204.64C1649.83 208.32 1656.63 210.16 1664.79 210.16C1671.83 210.16 1677.99 209.44 1683.27 208C1688.71 206.56 1693.67 204.8 1698.15 202.72V221.44C1693.83 223.68 1689.03 225.36 1683.75 226.48C1678.63 227.76 1672.39 228.4 1665.03 228.4ZM1812.5 190.48C1812.5 198.8 1810.42 205.76 1806.26 211.36C1802.1 216.96 1796.18 221.2 1788.5 224.08C1780.82 226.96 1771.7 228.4 1761.14 228.4C1752.18 228.4 1744.42 227.68 1737.86 226.24C1731.46 224.8 1725.78 222.8 1720.82 220.24V201.04C1725.94 203.6 1732.1 206 1739.3 208.24C1746.66 210.32 1754.1 211.36 1761.62 211.36C1772.34 211.36 1780.1 209.68 1784.9 206.32C1789.7 202.8 1792.1 198.16 1792.1 192.4C1792.1 189.2 1791.22 186.32 1789.46 183.76C1787.7 181.2 1784.5 178.64 1779.86 176.08C1775.38 173.52 1768.9 170.64 1760.42 167.44C1752.1 164.24 1744.98 161.04 1739.06 157.84C1733.14 154.64 1728.58 150.8 1725.38 146.32C1722.18 141.84 1720.58 136.08 1720.58 129.04C1720.58 118.16 1724.98 109.76 1733.78 103.84C1742.74 97.92 1754.42 94.96 1768.82 94.96C1776.66 94.96 1783.94 95.76 1790.66 97.36C1797.54 98.8 1803.94 100.88 1809.86 103.6L1802.66 120.4C1799.14 118.8 1795.38 117.44 1791.38 116.32C1787.54 115.04 1783.62 114.08 1779.62 113.44C1775.62 112.64 1771.54 112.24 1767.38 112.24C1758.74 112.24 1752.1 113.68 1747.46 116.56C1742.98 119.28 1740.74 123.04 1740.74 127.84C1740.74 131.36 1741.78 134.4 1743.86 136.96C1745.94 139.36 1749.38 141.76 1754.18 144.16C1759.14 146.4 1765.7 149.12 1773.86 152.32C1782.02 155.36 1788.98 158.48 1794.74 161.68C1800.5 164.88 1804.9 168.8 1807.94 173.44C1810.98 177.92 1812.5 183.6 1812.5 190.48Z" fill="black"/>
<defs>
<filter id="filter0_d_347_16" x="113.114" y="47.7271" width="110.689" height="107.347" filterUnits="userSpaceOnUse" color-interpolation-filters="sRGB">
<feFlood flood-opacity="0" result="BackgroundImageFix"/>
<feColorMatrix in="SourceAlpha" type="matrix" values="0 0 0 0 0 0 0 0 0 0 0 0 0 0 0 0 0 0 127 0" result="hardAlpha"/>
<feOffset dy="4.9617"/>
<feGaussianBlur stdDeviation="2.48085"/>
<feComposite in2="hardAlpha" operator="out"/>
<feColorMatrix type="matrix" values="0 0 0 0 0 0 0 0 0 0 0 0 0 0 0 0 0 0 0.1 0"/>
<feBlend mode="normal" in2="BackgroundImageFix" result="effect1_dropShadow_347_16"/>
<feBlend mode="normal" in="SourceGraphic" in2="effect1_dropShadow_347_16" result="shape"/>
</filter>
<filter id="filter1_d_347_16" x="112.997" y="144.95" width="111.117" height="107.514" filterUnits="userSpaceOnUse" color-interpolation-filters="sRGB">
<feFlood flood-opacity="0" result="BackgroundImageFix"/>
<feColorMatrix in="SourceAlpha" type="matrix" values="0 0 0 0 0 0 0 0 0 0 0 0 0 0 0 0 0 0 127 0" result="hardAlpha"/>
<feOffset dy="4.9617"/>
<feGaussianBlur stdDeviation="2.48085"/>
<feComposite in2="hardAlpha" operator="out"/>
<feColorMatrix type="matrix" values="0 0 0 0 0 0 0 0 0 0 0 0 0 0 0 0 0 0 0.1 0"/>
<feBlend mode="normal" in2="BackgroundImageFix" result="effect1_dropShadow_347_16"/>
<feBlend mode="normal" in="SourceGraphic" in2="effect1_dropShadow_347_16" result="shape"/>
</filter>
<filter id="filter2_d_347_16" x="46.0207" y="0.271484" width="76.689" height="154.442" filterUnits="userSpaceOnUse" color-interpolation-filters="sRGB">
<feFlood flood-opacity="0" result="BackgroundImageFix"/>
<feColorMatrix in="SourceAlpha" type="matrix" values="0 0 0 0 0 0 0 0 0 0 0 0 0 0 0 0 0 0 127 0" result="hardAlpha"/>
<feOffset dy="4.9617"/>
<feGaussianBlur stdDeviation="2.48085"/>
<feComposite in2="hardAlpha" operator="out"/>
<feColorMatrix type="matrix" values="0 0 0 0 0 0 0 0 0 0 0 0 0 0 0 0 0 0 0.1 0"/>
<feBlend mode="normal" in2="BackgroundImageFix" result="effect1_dropShadow_347_16"/>
<feBlend mode="normal" in="SourceGraphic" in2="effect1_dropShadow_347_16" result="shape"/>
</filter>
<filter id="filter3_d_347_16" x="46.1223" y="145.059" width="77.8472" height="150.167" filterUnits="userSpaceOnUse" color-interpolation-filters="sRGB">
<feFlood flood-opacity="0" result="BackgroundImageFix"/>
<feColorMatrix in="SourceAlpha" type="matrix" values="0 0 0 0 0 0 0 0 0 0 0 0 0 0 0 0 0 0 127 0" result="hardAlpha"/>
<feOffset dy="4.9617"/>
<feGaussianBlur stdDeviation="2.48085"/>
<feComposite in2="hardAlpha" operator="out"/>
<feColorMatrix type="matrix" values="0 0 0 0 0 0 0 0 0 0 0 0 0 0 0 0 0 0 0.1 0"/>
<feBlend mode="normal" in2="BackgroundImageFix" result="effect1_dropShadow_347_16"/>
<feBlend mode="normal" in="SourceGraphic" in2="effect1_dropShadow_347_16" result="shape"/>
</filter>
</defs>
</svg>
